<svg xmlns="http://www.w3.org/2000/svg" width="1280" height="800" viewBox="0 0 1280 800" fill="none">
  <rect width="1280" height="800" fill="#F3F3F0"/>
  <rect x="48" y="48" width="1184" height="64" rx="4" fill="#FFFFFF" stroke="#E4E4E0"/>
  <rect x="72" y="72" width="96" height="16" rx="2" fill="#16161A" opacity="0.8"/>
  <rect x="880" y="68" width="320" height="24" rx="4" fill="#FAFAF8" stroke="#E4E4E0"/>
  <rect x="48" y="136" width="280" height="616" rx="4" fill="#FFFFFF" stroke="#E4E4E0"/>
  <rect x="72" y="168" width="120" height="10" rx="2" fill="#94949E"/>
  <rect x="72" y="200" width="232" height="32" rx="4" fill="#1E3A5F" opacity="0.1"/>
  <rect x="72" y="248" width="232" height="32" rx="4" fill="#FAFAF8" stroke="#E4E4E0"/>
  <rect x="72" y="296" width="232" height="32" rx="4" fill="#FAFAF8" stroke="#E4E4E0"/>
  <rect x="352" y="136" width="880" height="616" rx="4" fill="#FFFFFF" stroke="#E4E4E0"/>
  <rect x="384" y="176" width="240" height="18" rx="2" fill="#16161A" opacity="0.85"/>
  <rect x="384" y="210" width="400" height="10" rx="2" fill="#94949E"/>
  <rect x="384" y="260" width="816" height="1" fill="#E4E4E0"/>
  <rect x="384" y="284" width="180" height="10" rx="2" fill="#94949E"/>
  <rect x="600" y="284" width="120" height="10" rx="2" fill="#94949E"/>
  <rect x="760" y="284" width="100" height="10" rx="2" fill="#94949E"/>
  <rect x="384" y="320" width="816" height="48" rx="2" fill="#FAFAF8" stroke="#E4E4E0"/>
  <rect x="384" y="384" width="816" height="48" rx="2" fill="#FFFFFF" stroke="#E4E4E0"/>
  <rect x="384" y="448" width="816" height="48" rx="2" fill="#FAFAF8" stroke="#E4E4E0"/>
  <rect x="384" y="512" width="816" height="48" rx="2" fill="#FFFFFF" stroke="#E4E4E0"/>
</svg>
